Coordinates
version=1
nRows=29
nColumns=24
inDegrees=yes

Units are S.I. units (second, meters, Newtons, ...)
Angles are in degrees.

endheader
time	pelvis_tilt	pelvis_list	pelvis_rotation	pelvis_tx	pelvis_ty	pelvis_tz	hip_flexion_r	hip_adduction_r	hip_rotation_r	knee_angle_r	ankle_angle_r	subtalar_angle_r	mtp_angle_r	hip_flexion_l	hip_adduction_l	hip_rotation_l	knee_angle_l	ankle_angle_l	subtalar_angle_l	mtp_angle_l	lumbar_extension	lumbar_bending	lumbar_rotation
      3.68500000	     -9.10600351	     -1.11294371	     10.32900161	     -1.83212796	     -0.02282962	     -0.29752742	     31.90444624	     -3.00294362	     -7.95395130	     -7.76160511	     -1.64247226	      5.49716199	     12.38217145	     -5.68896254	      0.78537981	     18.91927461	    -13.29542881	      6.65427807	      0.26444316	     14.42702701	      4.07696747	     -1.86494204	     -9.86041742
      3.69000000	     -9.16385863	     -1.21268222	     10.44598286	     -1.82586573	     -0.02368134	     -0.29711152	     32.00884926	     -2.97381218	     -8.28825334	     -8.42417620	     -2.12581813	      5.32143434	     12.88901213	     -5.73530038	      0.61448899	     18.86878098	    -13.83751994	      6.67280703	      0.78841041	     14.41541251	      4.27185635	     -1.74202835	     -9.88735999
      3.69500000	     -9.24256702	     -1.30903224	     10.45950529	     -1.81950905	     -0.02449765	     -0.29647794	     32.15706938	     -2.88862049	     -8.59777829	     -9.10084618	     -2.78892555	      5.08814321	     13.59073885	     -5.77140510	      0.43473298	     18.63245797	    -14.33578232	      6.53396074	      1.37486099	     14.79645411	      4.50895648	     -1.63565885	     -9.82773156
      3.70000000	     -9.31114888	     -1.46561126	     10.47887943	     -1.81316047	     -0.02524144	     -0.29587617	     32.30519552	     -2.75031314	     -8.89654409	     -9.79812677	     -3.49132992	      4.81312019	     14.21096755	     -5.78723896	      0.19466613	     18.41789570	    -14.85715522	      6.30889249	      1.87567285	     15.33474335	      4.73923818	     -1.44981325	     -9.76305677
      3.70500000	     -9.36584232	     -1.62759168	     10.38377021	     -1.80678649	     -0.02590799	     -0.29514642	     32.46042092	     -2.53961627	     -9.05380824	    -10.49119390	     -4.36925487	      4.45781674	     15.21502174	     -5.83436693	     -0.04662580	     18.10959552	    -15.33251479	      5.86669768	      2.19139774	     16.21085851	      4.95807318	     -1.23843817	     -9.57104535
      3.71000000	     -9.42445739	     -1.87291952	     10.38733294	     -1.80048091	     -0.02644014	     -0.29449952	     32.63330272	     -2.30082563	     -9.32712361	    -11.25569151	     -4.94702702	      4.25718005	     15.36067958	     -5.78688410	     -0.37841387	     17.85200865	    -15.94993416	      5.62581572	      2.80990598	     16.60604411	      5.18373131	     -0.95528182	     -9.52684502
      3.71500000	     -9.49631648	     -2.13765985	     10.26366318	     -1.79415845	     -0.02691886	     -0.29367759	     32.85292504	     -1.96077958	     -9.36786945	    -12.04900563	     -5.57623982	      3.97605599	     15.55623419	     -5.71315652	     -0.72823671	     17.38711457	    -16.57401461	      5.27334370	      3.45212495	     17.24195107	      5.42762342	     -0.63714724	     -9.33911900
      3.72000000	     -9.55513773	     -2.44222784	     10.12253584	     -1.78784859	     -0.02727298	     -0.29284132	     33.07067001	     -1.55988954	     -9.31415340	    -12.86604448	     -6.16642285	      3.70028828	     15.68262252	     -5.62298004	     -1.12024282	     16.90404249	    -17.22643546	      4.82281042	      4.06704563	     17.98024025	      5.65973043	     -0.26814920	     -9.14903688
      3.72500000	     -9.60276083	     -2.77612832	      9.95190285	     -1.78154328	     -0.02752122	     -0.29198634	     33.28774169	     -1.09955511	     -9.13209205	    -13.71291751	     -6.66990174	      3.45422718	     15.70054315	     -5.51153376	     -1.54270233	     16.36120995	    -17.92127983	      4.29367061	      4.69182404	     18.78041438	      5.88025466	      0.14558496	     -8.92783187
      3.73000000	     -9.64405190	     -3.12454660	      9.74869673	     -1.77521310	     -0.02764466	     -0.29107873	     33.49984517	     -0.58779068	     -8.84508316	    -14.57315413	     -7.11699887	      3.21901660	     15.56770050	     -5.37949406	     -1.98743793	     15.73702357	    -18.64640172	      3.64432002	      5.36679749	     19.67461231	      6.09750867	      0.57340844	     -8.71153866
      3.73500000	     -9.67525601	     -3.51322412	      9.54838732	     -1.76885566	     -0.02767106	     -0.29017046	     33.69613789	     -0.01127027	     -8.44611185	    -15.44414649	     -7.46619758	      2.91508190	     15.08304488	     -5.24048412	     -2.48034163	     15.16773275	    -19.34987036	      2.73729838	      5.85947736	     21.14482389	      6.31022188	      1.05019504	     -8.49554491
      3.74000000	     -9.66369952	     -3.86077611	      9.29990671	     -1.76249697	     -0.02763422	     -0.28927278	     33.85362295	      0.55003809	     -8.02116662	    -16.34801584	     -7.62827782	      2.89117800	     14.85986745	     -5.09105263	     -2.93416079	     14.38461886	    -20.22052296	      2.06552032	      6.72789984	     21.78549274	      6.46426104	      1.50612140	     -8.24912139
      3.74500000	     -9.68088838	     -4.27452854	      9.06802838	     -1.75601601	     -0.02750623	     -0.28831146	     33.99810608	      1.21311331	     -7.47285916	    -17.18594106	     -7.79812879	      2.55284085	     13.95572091	     -4.89818052	     -3.47571683	     13.65556774	    -21.02820474	      1.00134934	      7.37059025	     23.28426409	      6.67899694	      2.01161961	     -8.03795909
      3.75000000	     -9.63897707	     -4.60012222	      8.83201011	     -1.74956730	     -0.02732375	     -0.28739961	     34.06084465	      1.79015514	     -6.94369612	    -18.01657775	     -7.80181030	      2.47923895	     13.55856358	     -4.71395073	     -3.94020380	     12.78809661	    -21.98681384	      0.10141387	      8.36083072	     24.11288146	      6.80432230	      2.44063151	     -7.84324243
      3.75500000	     -9.60097221	     -4.94532954	      8.58508969	     -1.74300609	     -0.02709422	     -0.28646118	     34.07982616	      2.41518232	     -6.38417248	    -18.76763525	     -7.81520354	      2.26009202	     13.02112233	     -4.50988811	     -4.43969231	     11.90515247	    -22.95151755	     -0.98355027	      9.28238407	     25.14835781	      6.95358291	      2.88707085	     -7.64440118
      3.76000000	     -9.55305203	     -5.31915756	      8.36182501	     -1.73628289	     -0.02676926	     -0.28556766	     34.02729819	      3.07096590	     -5.90145036	    -19.43650052	     -7.70744345	      1.97994747	     12.06618591	     -4.32174309	     -4.98372238	     11.08295581	    -23.84022070	     -2.47127767	      9.91767422	     26.83387338	      7.12728463	      3.36243855	     -7.46534925
      3.76500000	     -9.48744156	     -5.60392715	      8.17884325	     -1.72973364	     -0.02646052	     -0.28471549	     33.92296875	      3.61810285	     -5.41535340	    -20.04984388	     -7.59625292	      1.74711641	     11.64358339	     -4.05808039	     -5.44907738	     10.21768511	    -24.92785364	     -3.75319331	     10.89065698	     27.80937370	      7.23385916	      3.73790983	     -7.35433509
      3.77000000	     -9.42369296	     -5.86598953	      8.00435725	     -1.72307088	     -0.02610551	     -0.28385986	     33.74996689	      4.15065027	     -4.95696686	    -20.55303904	     -7.46622525	      1.42870930	     11.28885340	     -3.78826458	     -5.90858189	      9.37221441	    -25.99775729	     -5.24442743	     11.80223135	     28.89249957	      7.36372788	      4.08186948	     -7.26365174
      3.77500000	     -9.36572665	     -6.09825929	      7.85526917	     -1.71641074	     -0.02572797	     -0.28303470	     33.52756942	      4.63990670	     -4.56699089	    -20.96310621	     -7.31058633	      1.09530337	     11.06891268	     -3.47850653	     -6.34792850	      8.56292883	    -27.10119813	     -6.86653413	     12.66557933	     29.94775214	      7.49932214	      4.38803463	     -7.20006738
      3.78000000	     -9.31799729	     -6.31171682	      7.71695334	     -1.70974178	     -0.02533855	     -0.28231952	     33.26996839	      5.07249884	     -4.35277382	    -21.29262476	     -7.07803096	      0.95618715	     11.13516187	     -3.12133840	     -6.76393256	      7.79629907	    -28.28916959	     -8.43010442	     13.56391247	     30.38178634	      7.65295885	      4.68599118	     -7.13173640
      3.78500000	     -9.28650736	     -6.47590436	      7.64019771	     -1.70321268	     -0.02491988	     -0.28143386	     32.95401984	      5.49451492	     -3.90611144	    -21.47768988	     -7.04022439	      0.28332009	     11.10965764	     -2.70693648	     -7.15564824	      7.12994678	    -29.42002408	    -10.41683555	     14.19320058	     31.74399950	      7.79500423	      4.87892751	     -7.16797393
      3.79000000	     -9.27387711	     -6.64855530	      7.57300812	     -1.69666856	     -0.02450649	     -0.28068283	     32.62358401	      5.86715984	     -3.72167833	    -21.59351324	     -6.88700804	     -0.06825163	     11.42022861	     -2.23546450	     -7.55031609	      6.49699465	    -30.62111052	    -12.33862000	     14.80285596	     32.56651956	      7.97243108	      5.09604163	     -7.18856879
      3.79500000	     -9.27483548	     -6.81298084	      7.53343530	     -1.69023076	     -0.02409188	     -0.27993803	     32.27205205	      6.21334839	     -3.56811680	    -21.64515220	     -6.64987464	     -0.34415899	     11.66844145	     -1.69058435	     -7.93447974	      5.96232023	    -31.93019677	    -14.07516701	     15.49103382	     32.66213315	      8.15186359	      5.29346607	     -7.24476422
      3.80000000	     -9.32621359	     -6.92030263	      7.52687012	     -1.68400326	     -0.02370100	     -0.27912163	     31.93688755	      6.50486787	     -3.31641253	    -21.60268347	     -6.63447752	     -0.93356151	     12.16761280	     -1.04294545	     -8.25302792	      5.52408373	    -33.23778133	    -16.00858899	     15.93678683	     33.14933882	      8.34824960	      5.40093938	     -7.34406029
      3.80500000	     -9.30091297	     -7.06156993	      7.55815866	     -1.67775567	     -0.02321704	     -0.27845356	     31.49039062	      6.78785902	     -3.28113547	    -21.52474693	     -6.29832807	     -1.16801691	     12.40438327	     -0.44262537	     -8.60033611	      5.14840352	    -34.60648615	    -17.76215596	     16.20985305	     32.90036903	      8.48084316	      5.56452931	     -7.45540791
      3.81000000	     -9.33263636	     -7.21165385	      7.60339371	     -1.67164863	     -0.02276603	     -0.27772422	     31.08975176	      7.07235200	     -3.22743091	    -21.39438357	     -6.06826408	     -1.50796456	     12.64406178	      0.27094439	     -8.94791709	      4.85151550	    -36.00677844	    -19.49636886	     16.36216966	     32.66303324	      8.65833544	      5.71366272	     -7.58685771
      3.81500000	     -9.51781016	     -7.31862484	      7.66642323	     -1.66578085	     -0.02243618	     -0.27693285	     30.85438844	      7.28555265	     -3.12466139	    -21.22428713	     -6.13792551	     -2.07939040	     13.33414394	      1.20856773	     -9.20958799	      4.69752695	    -37.43465077	    -21.25163582	     16.38538099	     32.59317556	      8.96538371	      5.77527594	     -7.74449272
      3.82000000	     -9.48537726	     -7.50933857	      7.71647477	     -1.65979627	     -0.02188844	     -0.27623725	     30.35289658	      7.60189937	     -3.15043968	    -21.01450282	     -5.85771567	     -2.26586568	     13.56997461	      1.90734417	     -9.58858356	      4.46887989	    -38.84892765	    -22.82397768	     16.18476079	     32.17269858	      9.06548025	      5.98352385	     -7.82893374
      3.82500000	     -9.50724339	     -7.68047981	      7.81433107	     -1.65403167	     -0.02136034	     -0.27558039	     29.92173161	      7.86458058	     -3.19218633	    -20.80651461	     -5.64957006	     -2.50512650	     13.79194111	      2.73051493	     -9.90924033	      4.36832775	    -40.30294133	    -24.30442039	     15.79313267	     31.69381739	      9.19485596	      6.14787156	     -7.96475454
